<?xml version="1.0" encoding="utf-8"?>
<!-- Generator: Adobe Illustrator 24.1.2, SVG Export Plug-In . SVG Version: 6.00 Build 0)  -->
<svg version="1.1" xmlns="http://www.w3.org/2000/svg" xmlns:xlink="http://www.w3.org/1999/xlink" x="0px" y="0px"
	 viewBox="0 0 500 500" style="enable-background:new 0 0 500 500;" xml:space="preserve">
<style type="text/css">
	.st0{fill:#EBEBEB;}
	.st1{fill:#F5F5F5;}
	.st2{fill:#F0F0F0;}
	.st3{fill:#E0E0E0;}
	.st4{fill:#FAFAFA;}
	.st5{fill:#407BFF;}
	.st6{opacity:0.9;fill:#FFFFFF;}
	.st7{opacity:0.6;fill:#FFFFFF;enable-background:new    ;}
	.st8{opacity:0.1;enable-background:new    ;}
	.st9{fill:#FFFFFF;}
	.st10{opacity:0.3;fill:#FFFFFF;enable-background:new    ;}
	.st11{opacity:0.3;enable-background:new    ;}
	.st12{opacity:0.6;fill:#FFFFFF;}
	.st13{opacity:0.4;fill:#FFFFFF;}
	.st14{opacity:0.2;fill:#FFFFFF;}
	.st15{opacity:0.8;fill:#FFFFFF;}
	.st16{fill:#B97964;}
	.st17{fill:#263238;}
	.st18{opacity:0.2;enable-background:new    ;}
	.st19{opacity:0.7;fill:#FFFFFF;enable-background:new    ;}
	.st20{fill:#E4897B;}
</style>
<g id="Background_Complete">
	<g>
		<rect y="382.4" class="st0" width="500" height="0.25"/>
		<rect x="416.78" y="398.49" class="st0" width="33.12" height="0.25"/>
		<rect x="322.53" y="401.21" class="st0" width="8.69" height="0.25"/>
		<rect x="396.59" y="389.21" class="st0" width="19.19" height="0.25"/>
		<rect x="52.46" y="390.89" class="st0" width="43.19" height="0.25"/>
		<rect x="104.56" y="390.89" class="st0" width="6.33" height="0.25"/>
		<rect x="131.47" y="395.11" class="st0" width="93.68" height="0.25"/>
		<path class="st0" d="M237.01,337.8H43.92c-3.15,0-5.71-2.56-5.71-5.71V60.66c0-3.15,2.56-5.71,5.71-5.71h193.1
			c3.15,0,5.71,2.56,5.71,5.71v271.43C242.72,335.24,240.16,337.8,237.01,337.8z M43.92,55.2c-3.01,0-5.46,2.45-5.46,5.46v271.43
			c0,3.01,2.45,5.46,5.46,5.46h193.1c3.01,0,5.46-2.45,5.46-5.46V60.66c0-3.01-2.45-5.46-5.46-5.46H43.92z"/>
		<path class="st0" d="M453.31,337.8h-193.1c-3.15,0-5.71-2.56-5.71-5.71V60.66c0-3.15,2.56-5.71,5.71-5.71h193.1
			c3.15,0,5.71,2.56,5.71,5.71v271.43C459.02,335.24,456.46,337.8,453.31,337.8z M260.21,55.2c-3.01,0-5.46,2.45-5.46,5.46v271.43
			c0,3.01,2.45,5.46,5.46,5.46h193.1c3.01,0,5.46-2.45,5.46-5.46V60.66c0-3.01-2.45-5.46-5.46-5.46H260.21z"/>
	</g>
	<g>
		<g>
			<g>
				<polygon class="st1" points="134.39,136.47 78.88,136.47 79.73,128.96 135.24,128.96 				"/>
				<polygon class="st1" points="130.41,171.55 74.9,171.55 75.75,164.04 131.26,164.04 				"/>
				<polygon class="st1" points="126.44,206.63 70.93,206.63 71.78,199.13 127.29,199.13 				"/>
				<polygon class="st1" points="122.46,241.71 66.95,241.71 67.8,234.21 123.31,234.21 				"/>
				<polygon class="st1" points="118.49,276.79 62.98,276.79 63.83,269.29 119.34,269.29 				"/>
				<polygon class="st1" points="114.52,311.88 59.01,311.88 59.86,304.37 115.37,304.37 				"/>
				<polygon class="st1" points="110.54,346.96 55.03,346.96 55.88,339.45 111.39,339.45 				"/>
			</g>
			<g>
				<polygon class="st0" points="54.81,382.65 46.12,382.65 76.55,114.03 85.24,114.03 				"/>
				<polygon class="st0" points="111.37,382.65 102.68,382.65 133.11,114.03 141.8,114.03 				"/>
			</g>
		</g>
		<g>
			<rect x="339.64" y="98.63" class="st1" width="104.7" height="284.02"/>
			<g>
				<rect x="345.38" y="104.87" class="st0" width="93.23" height="46.33"/>
				<rect x="357.03" y="122.37" class="st2" width="28.83" height="28.83"/>
				<rect x="396.22" y="130.68" class="st2" width="20.52" height="20.52"/>
			</g>
			<g>
				<rect x="345.38" y="156.06" class="st0" width="93.23" height="46.33"/>
				<rect x="357.03" y="173.56" class="st2" width="13.88" height="28.83"/>
				<rect x="385.87" y="190.57" class="st2" width="30.88" height="11.82"/>
				<rect x="380" y="172.94" class="st2" width="29.98" height="17.63"/>
			</g>
			<g>
				<rect x="345.38" y="207.25" class="st0" width="93.23" height="46.33"/>
				<rect x="380" y="224.75" class="st2" width="5.87" height="28.83"/>
				<rect x="396.22" y="214.56" class="st2" width="36" height="39.02"/>
			</g>
			<g>
				<rect x="345.38" y="258.44" class="st0" width="93.23" height="46.33"/>
				<rect x="357.03" y="275.94" class="st2" width="28.83" height="28.83"/>
				<rect x="396.22" y="284.25" class="st2" width="20.52" height="20.52"/>
			</g>
			<g>
				<rect x="345.38" y="309.63" class="st0" width="93.23" height="46.33"/>
				<rect x="357.03" y="327.12" class="st2" width="28.83" height="28.83"/>
				<rect x="396.22" y="335.44" class="st2" width="20.52" height="20.52"/>
			</g>
			<rect x="354.29" y="84.35" class="st2" width="31.58" height="14.28"/>
			<rect x="397.97" y="91.49" class="st2" width="16.25" height="7.14"/>
		</g>
		<g>
			
				<rect x="97.36" y="301.34" transform="matrix(-1 -1.224647e-16 1.224647e-16 -1 285.4003 683.9887)" class="st0" width="90.67" height="81.31"/>
			
				<rect x="156.48" y="301.34" transform="matrix(-1 -1.224647e-16 1.224647e-16 -1 344.5169 683.9887)" class="st3" width="31.56" height="81.31"/>
		</g>
		<g>
			
				<rect x="79.32" y="236.82" transform="matrix(-1 -1.224647e-16 1.224647e-16 -1 249.3111 539.8376)" class="st1" width="90.67" height="66.19"/>
			
				<rect x="138.44" y="236.82" transform="matrix(-1 -1.224647e-16 1.224647e-16 -1 308.4277 539.8376)" class="st0" width="31.56" height="66.19"/>
		</g>
		<g>
			
				<rect x="100.6" y="204.43" transform="matrix(-1 -1.224647e-16 1.224647e-16 -1 288.6375 441.2472)" class="st4" width="87.44" height="32.4"/>
			
				<rect x="157.61" y="204.43" transform="matrix(-1 -1.224647e-16 1.224647e-16 -1 345.6437 441.2472)" class="st2" width="30.43" height="32.4"/>
		</g>
		<g>
			<rect x="65.68" y="84.35" class="st2" width="123.86" height="7.14"/>
			<rect x="74.9" y="74.25" class="st1" width="17.99" height="10.1"/>
			<rect x="97.04" y="65.29" class="st2" width="19.06" height="19.06"/>
			<rect x="122.97" y="74.82" class="st0" width="9.53" height="9.53"/>
			<path class="st1" d="M148.64,79.75c0,2.72-2.21,4.93-4.93,4.93c-2.73,0-4.93-2.21-4.93-4.93c0-2.73,2.21-4.93,4.93-4.93
				C146.43,74.82,148.64,77.03,148.64,79.75z"/>
			<polygon class="st0" points="154.88,84.35 160.87,65.29 170.76,65.29 176.23,84.69 			"/>
		</g>
	</g>
</g>
<g id="Background_Simple">
	<g>
		<path class="st5" d="M104.56,101.63c27.92-59.45,127.06-51.06,165.32-9.26c38.26,41.81,50.7,68.6,85.21,52.98
			c34.51-15.62,78.52-11.44,81.04,38.16s-37.91,108.26-102.09,125.61c-64.18,17.35-64.16,78.76-149.1,66.37
			c-46.31-6.76-47.37-56.86-40.83-98.3S72.18,170.57,104.56,101.63z"/>
		<path class="st6" d="M104.56,101.63c27.92-59.45,127.06-51.06,165.32-9.26c38.26,41.81,50.7,68.6,85.21,52.98
			c34.51-15.62,78.52-11.44,81.04,38.16s-37.91,108.26-102.09,125.61c-64.18,17.35-64.16,78.76-149.1,66.37
			c-46.31-6.76-47.37-56.86-40.83-98.3S72.18,170.57,104.56,101.63z"/>
	</g>
</g>
<g id="Shadow_1_">
	<ellipse id="_x3C_Path_x3E__359_" class="st1" cx="250" cy="416.24" rx="193.89" ry="11.32"/>
</g>
<g id="Screen">
	<g>
		<g>
			<path class="st5" d="M327.62,118.37v296.47c0,2.44-1.96,4.33-4.4,4.33H185.25c-1.1,0-2.06-0.41-2.76-1.11
				c-0.73-0.71-1.17-1.72-1.17-2.86V118.01c0-1.94,1.43-3.63,3.37-3.63h39.19c1.1,0,2.11,0.72,2.52,1.76l1.63,3.99
				c0.41,1.03,1.41,1.75,2.52,1.75h47.95c1.11,0,2.11-0.69,2.52-1.72l1.63-4.02c0.41-1.04,1.41-1.77,2.52-1.77h38.62
				C325.91,114.38,327.62,116.23,327.62,118.37z"/>
			<g>
				<g>
					
						<rect x="199.51" y="123.6" transform="matrix(-1 -1.224647e-16 1.224647e-16 -1 401.0578 249.9214)" class="st7" width="2.04" height="2.72"/>
					
						<rect x="196.19" y="122.69" transform="matrix(-1 -1.224647e-16 1.224647e-16 -1 394.4124 249.0146)" class="st7" width="2.04" height="3.62"/>
					
						<rect x="192.86" y="121.79" transform="matrix(-1 -1.224647e-16 1.224647e-16 -1 387.7671 248.1079)" class="st7" width="2.04" height="4.53"/>
					
						<rect x="189.54" y="120.88" transform="matrix(-1 -1.224647e-16 1.224647e-16 -1 381.1217 247.2011)" class="st7" width="2.04" height="5.44"/>
				</g>
				<g>
					<rect x="307.73" y="122.61" class="st7" width="1.21" height="2.72"/>
					
						<rect x="309.77" y="121.62" transform="matrix(-1 -1.224647e-16 1.224647e-16 -1 629.1754 247.9375)" class="st7" width="9.63" height="4.7"/>
				</g>
			</g>
			<g class="st8">
				<path class="st9" d="M247.14,121.88l-42.12,157.76v0.01l-0.47,1.77v0.01l-0.76,2.84v0.01l-0.48,1.77l-21.99,82.38v-99.7
					l41.21-154.36h1.34c1.11,0,2.11,0.72,2.52,1.76l1.62,4c0.41,1.03,1.42,1.74,2.52,1.74H247.14z"/>
				<polygon class="st9" points="327.62,202.45 327.62,302.15 301.36,400.55 300.72,402.94 296.38,419.18 269.77,419.18 
					274.1,402.95 274.8,400.34 278.27,387.31 278.97,384.7 280.37,379.49 281.06,376.88 282.45,371.67 283.14,369.06 305.04,287.04 
					305.04,287.03 306.05,283.24 306.05,283.24 				"/>
				<path class="st9" d="M261.56,121.88l-41.86,156.78l-0.25,0.94l-2.29,8.59l-0.25,0.94l-34.42,128.94
					c-0.73-0.71-1.17-1.73-1.17-2.87v-15.17l29.61-110.91l0.25-0.94l2.29-8.59l0.25-0.94l41.86-156.78H261.56z"/>
			</g>
		</g>
		<g>
			<rect x="181.32" y="133.7" class="st10" width="146.3" height="272.35"/>
		</g>
		<g>
			<path class="st5" d="M299.47,253.38L299.47,253.38c2.81,0,5.1-2.28,5.1-5.1v-80.45c0-2.81-2.28-5.1-5.1-5.1l0,0
				c-2.81,0-5.1,2.28-5.1,5.1v80.45C294.37,251.1,296.66,253.38,299.47,253.38z"/>
			<path class="st11" d="M299.47,251.38c-1.71,0-3.1-1.39-3.1-3.1v-80.45c0-1.71,1.39-3.1,3.1-3.1c1.71,0,3.1,1.39,3.1,3.1v80.45
				C302.57,249.99,301.18,251.38,299.47,251.38z"/>
			
				<ellipse transform="matrix(0.1602 -0.9871 0.9871 0.1602 78.0096 443.2085)" class="st5" cx="299.47" cy="175.76" rx="7.39" ry="7.39"/>
			<path class="st5" d="M269.47,253.38L269.47,253.38c2.81,0,5.1-2.28,5.1-5.1v-80.45c0-2.81-2.28-5.1-5.1-5.1l0,0
				c-2.81,0-5.1,2.28-5.1,5.1v80.45C264.37,251.1,266.66,253.38,269.47,253.38z"/>
			<path class="st11" d="M269.47,251.38c-1.71,0-3.1-1.39-3.1-3.1v-80.45c0-1.71,1.39-3.1,3.1-3.1c1.71,0,3.1,1.39,3.1,3.1v80.45
				C272.57,249.99,271.18,251.38,269.47,251.38z"/>
			
				<ellipse transform="matrix(0.1602 -0.9871 0.9871 0.1602 -6.4102 463.9849)" class="st5" cx="269.47" cy="235.76" rx="7.39" ry="7.39"/>
			<path class="st5" d="M239.47,253.38L239.47,253.38c2.81,0,5.1-2.28,5.1-5.1v-80.45c0-2.81-2.28-5.1-5.1-5.1l0,0
				c-2.81,0-5.1,2.28-5.1,5.1v80.45C234.37,251.1,236.66,253.38,239.47,253.38z"/>
			<path class="st11" d="M239.47,251.38c-1.71,0-3.1-1.39-3.1-3.1v-80.45c0-1.71,1.39-3.1,3.1-3.1c1.71,0,3.1,1.39,3.1,3.1v80.45
				C242.57,249.99,241.18,251.38,239.47,251.38z"/>
			
				<ellipse transform="matrix(0.1602 -0.9871 0.9871 0.1602 7.8788 400.7796)" class="st5" cx="239.47" cy="195.76" rx="7.39" ry="7.39"/>
			<path class="st5" d="M209.47,253.38L209.47,253.38c2.81,0,5.1-2.28,5.1-5.1v-80.45c0-2.81-2.28-5.1-5.1-5.1l0,0
				c-2.81,0-5.1,2.28-5.1,5.1v80.45C204.37,251.1,206.66,253.38,209.47,253.38z"/>
			<path class="st11" d="M209.47,251.38c-1.71,0-3.1-1.39-3.1-3.1v-80.45c0-1.71,1.39-3.1,3.1-3.1c1.71,0,3.1,1.39,3.1,3.1v80.45
				C212.57,249.99,211.18,251.38,209.47,251.38z"/>
			
				<ellipse transform="matrix(0.1602 -0.9871 0.9871 0.1602 -46.9283 396.3615)" class="st5" cx="209.47" cy="225.76" rx="7.39" ry="7.39"/>
			
				<ellipse transform="matrix(0.1602 -0.9871 0.9871 0.1602 78.0096 443.2085)" class="st12" cx="299.47" cy="175.76" rx="7.39" ry="7.39"/>
			<path class="st12" d="M299.47,181.15c-2.97,0-5.39-2.42-5.39-5.39c0-2.97,2.42-5.39,5.39-5.39s5.39,2.42,5.39,5.39
				C304.86,178.73,302.44,181.15,299.47,181.15z"/>
			
				<ellipse transform="matrix(0.1602 -0.9871 0.9871 0.1602 -6.4102 463.9849)" class="st12" cx="269.47" cy="235.76" rx="7.39" ry="7.39"/>
			<path class="st12" d="M269.47,241.15c-2.97,0-5.39-2.42-5.39-5.39c0-2.97,2.42-5.39,5.39-5.39s5.39,2.42,5.39,5.39
				C274.86,238.73,272.44,241.15,269.47,241.15z"/>
			
				<ellipse transform="matrix(0.1602 -0.9871 0.9871 0.1602 7.8788 400.7796)" class="st12" cx="239.47" cy="195.76" rx="7.39" ry="7.39"/>
			<path class="st12" d="M239.47,201.15c-2.97,0-5.39-2.42-5.39-5.39c0-2.97,2.42-5.39,5.39-5.39c2.97,0,5.39,2.42,5.39,5.39
				C244.86,198.73,242.44,201.15,239.47,201.15z"/>
			
				<ellipse transform="matrix(0.1602 -0.9871 0.9871 0.1602 -46.9283 396.3615)" class="st12" cx="209.47" cy="225.76" rx="7.39" ry="7.39"/>
			<path class="st12" d="M209.47,231.15c-2.97,0-5.39-2.42-5.39-5.39c0-2.97,2.42-5.39,5.39-5.39c2.97,0,5.39,2.42,5.39,5.39
				C214.86,228.73,212.44,231.15,209.47,231.15z"/>
		</g>
		<g>
			<path class="st5" d="M317.8,395.36H191.14c-1.52,0-2.75-1.23-2.75-2.75V274.31c0-1.52,1.23-2.75,2.75-2.75H317.8
				c1.52,0,2.75,1.23,2.75,2.75v118.29C320.55,394.13,319.32,395.36,317.8,395.36z"/>
			<path class="st11" d="M317.8,395.36H191.14c-1.52,0-2.75-1.23-2.75-2.75V274.31c0-1.52,1.23-2.75,2.75-2.75H317.8
				c1.52,0,2.75,1.23,2.75,2.75v118.29C320.55,394.13,319.32,395.36,317.8,395.36z"/>
		</g>
		<g>
			<path class="st12" d="M242.55,351.81v10.64l5.48,0.52c0.74,3.57,2.15,6.88,4.09,9.83l-3.52,4.25l7.53,7.53l4.25-3.52
				c2.95,1.93,6.26,3.35,9.83,4.09l0.52,5.48h10.64l0.52-5.48c3.57-0.74,6.88-2.15,9.83-4.09l4.25,3.52l7.52-7.53l-3.52-4.25
				c1.93-2.95,3.35-6.26,4.09-9.83l5.48-0.52v-10.64l-5.48-0.52c-0.74-3.57-2.15-6.88-4.09-9.83l3.52-4.25l-7.52-7.52l-4.25,3.52
				c-2.95-1.93-6.26-3.35-9.83-4.09l-0.52-5.48h-10.64l-0.52,5.48c-3.57,0.74-6.88,2.15-9.83,4.09l-4.25-3.52l-7.53,7.52l3.52,4.25
				c-1.93,2.95-3.35,6.26-4.09,9.83L242.55,351.81z M276.04,342.72c7.96,0,14.41,6.45,14.41,14.41c0,7.96-6.45,14.41-14.41,14.41
				c-7.96,0-14.41-6.45-14.41-14.41C261.63,349.17,268.08,342.72,276.04,342.72z"/>
			<path class="st13" d="M199.41,321.25v8.34l4.29,0.4c0.58,2.8,1.69,5.39,3.2,7.7l-2.76,3.33l5.9,5.9l3.33-2.76
				c2.31,1.51,4.91,2.62,7.7,3.2l0.4,4.29h8.34l0.4-4.29c2.8-0.58,5.39-1.69,7.7-3.2l3.33,2.76l5.9-5.9l-2.76-3.33
				c1.51-2.31,2.62-4.91,3.2-7.7l4.29-0.4v-8.34l-4.29-0.4c-0.58-2.8-1.69-5.39-3.2-7.7l2.76-3.33l-5.9-5.9l-3.33,2.76
				c-2.31-1.51-4.91-2.62-7.7-3.2l-0.4-4.29h-8.34l-0.4,4.29c-2.8,0.58-5.39,1.69-7.7,3.2l-3.33-2.76l-5.9,5.9l2.76,3.33
				c-1.51,2.31-2.62,4.91-3.2,7.7L199.41,321.25z M225.66,314.13c6.23,0,11.29,5.05,11.29,11.29c0,6.24-5.05,11.29-11.29,11.29
				c-6.23,0-11.29-5.05-11.29-11.29C214.37,319.18,219.42,314.13,225.66,314.13z"/>
			<path class="st14" d="M245.92,295.5v7l3.61,0.34c0.49,2.35,1.42,4.53,2.69,6.47l-2.32,2.8l4.95,4.95l2.8-2.32
				c1.94,1.27,4.12,2.2,6.47,2.69l0.34,3.61h7l0.34-3.61c2.35-0.49,4.53-1.42,6.47-2.69l2.8,2.32l4.95-4.95l-2.32-2.8
				c1.27-1.94,2.2-4.12,2.69-6.47l3.61-0.34l0-7l-3.61-0.34c-0.49-2.35-1.42-4.53-2.69-6.47l2.32-2.8l-4.95-4.95l-2.8,2.32
				c-1.94-1.27-4.12-2.2-6.47-2.69l-0.34-3.61h-7l-0.34,3.61c-2.35,0.49-4.53,1.42-6.47,2.69l-2.8-2.32l-4.95,4.95l2.32,2.8
				c-1.27,1.94-2.2,4.12-2.69,6.47L245.92,295.5z M267.97,289.52c5.24,0,9.48,4.25,9.48,9.48c0,5.24-4.25,9.48-9.48,9.48
				c-5.24,0-9.48-4.25-9.48-9.48C258.48,293.77,262.73,289.52,267.97,289.52z"/>
			<polygon class="st12" points="233.69,323.26 227.81,317.38 219.78,319.54 217.62,327.57 223.5,333.45 231.54,331.3 			"/>
			<polygon class="st15" points="277.33,346.91 267.83,350.89 266.54,361.11 274.74,367.35 284.24,363.36 285.54,353.14 			"/>
			<polygon class="st13" points="273.87,302.41 273.87,295.59 267.97,292.18 262.06,295.59 262.06,302.41 267.97,305.82 			"/>
		</g>
	</g>
</g>
<g id="Character_2">
	<g>
		<path class="st16" d="M411.19,237.61l10.64,8.64c0,0,2.6,0.05,3.42,0.91c0.82,0.86,3.96,7.24,3.51,8.11
			c-0.45,0.87-5.7,2.59-6.8,1.56c-1.11-1.03-3.03-6.94-2.99-7.57l-13.59-9.12L411.19,237.61z"/>
		<path class="st17" d="M417.09,241.41l-2.38,5.19c0,0-14.63-6.85-17.8-10.84c-0.81-1.03-1.93-2.67-3.14-4.54
			c-1.99-3.09-4.24-6.81-5.8-9.42c-1.16-1.95-1.94-3.28-1.94-3.28l8.28-13.06c1.81,1.39,7.35,23.71,8.34,24.91
			C403.64,231.57,417.09,241.41,417.09,241.41z"/>
		<path class="st18" d="M393.77,231.22c-1.99-3.09-4.24-6.81-5.8-9.42l3.85-9.5C391.82,212.3,393.91,223.2,393.77,231.22z"/>
		<path class="st16" d="M326.33,188.05l-11.22-7.98c0,0-1.33-2.23-2.48-2.52c-1.15-0.29-8.25,0.14-8.79,0.96
			c-0.54,0.82,0.57,6.23,2.01,6.68c1.44,0.45,7.53-0.8,8.06-1.14l11.39,7.87L326.33,188.05z"/>
		<polygon class="st16" points="414.85,411.79 408.57,412.9 406,404.34 403.65,396.49 410.89,393.96 412.99,403.4 		"/>
		<polygon class="st18" points="413.02,403.59 406.03,404.51 403.66,396.57 410.89,394 		"/>
		<polygon class="st16" points="372.94,411.95 366.57,411.95 365.52,403.4 364.57,395.42 372.14,394.26 372.57,403.65 		"/>
		<polygon class="st18" points="372.57,404.21 365.52,403.9 364.57,395.66 372.14,394.39 		"/>
		<g>
			<g>
				<path class="st5" d="M413.61,396.73l-10.32,1.82c-10.41-25.95-17.82-47.6-23.05-65.57c-2.82-9.7-5.05-18.32-6.74-25.97
					l0.43,28.24v63.71h-10.41c-25.49-121-7.43-149.13-7.43-149.13l30.5-5.1c1.16,4.55,2.04,11.99,2.55,17.12l1.38,10.11l11.92,61.57
					L413.61,396.73z"/>
			</g>
		</g>
		<g>
			<polygon class="st5" points="401.68,397.27 414.48,393.03 414.3,398.47 403.72,401.85 			"/>
			<polygon class="st7" points="401.68,397.27 414.48,393.03 414.3,398.47 403.72,401.85 			"/>
		</g>
		<g>
			<polygon class="st5" points="362.17,397.86 375.51,395.91 374.39,401.24 363.38,402.73 			"/>
			<polygon class="st7" points="362.17,397.86 375.51,395.91 374.39,401.24 363.38,402.73 			"/>
		</g>
		<path class="st18" d="M381.65,337.72c-0.48-1.61-0.99-3.19-1.45-4.75c-2.55-8.8-4.26-16.72-6.26-23.82v-0.02l-1.04-13.08
			c0,0,6.52-14.37,4.08-24.48c0.23,0.57,4.54,11.59,2.85,22.6C379.83,294.16,379.01,314.03,381.65,337.72z"/>
		<g>
			<path class="st16" d="M382.52,192.33c-0.08,0.06-0.18,0.11-0.27,0.15c-1.24,0.66-2.63,1.26-4.15,1.4c-4.26,0.42-7-0.52-8.6-2.63
				c-0.01,0-0.01,0-0.01,0c-2.21-3.14-2.21-8.19-1.07-14.13c0.52-2.73,1.22-5.07,2.22-6.83c0.01-0.02,0.02-0.09,0.03-0.1
				c0.05-0.07,0.09-0.17,0.14-0.24c1.47-2.45,3.57-3.89,6.66-4.21c1.07-0.11,2.26-0.09,3.59,0.06
				C392.76,167.2,392.35,186.82,382.52,192.33z"/>
			<path class="st18" d="M382.26,192.48c-1.24,0.66-2.61,1.09-4.13,1.24c-4.26,0.42-6.99-0.65-8.58-2.79
				c1.97,0.71,4.68,1.24,7.49,0.36C378.81,190.73,380.62,191.37,382.26,192.48z"/>
			<path class="st16" d="M383.13,202.04c1.05,3.27-3.14,5.05-3.14,5.05c-7.37-2.33-9.05-5.96-9.05-5.96
				c5.6-3.66,3.04-12.19,3.04-12.19l1.26,0.47l8.59,0.82c0,0-1.9,4.72-2.11,5.77c0,0.01-0.01,0.02-0.01,0.03
				C380.65,201.54,383.13,202.04,383.13,202.04z"/>
			<path class="st17" d="M370.65,170.21c0,0-1.71,8.11,5.6,12.64c0,0,2.23,8.94,7.12,9.7c6.67,1.03,13.8-7.72,12.75-17.72
				C394.74,161.87,375.82,158.37,370.65,170.21z"/>
			<path class="st16" d="M372.62,179.99c0.17-1.28,1.48-3.29,3.42-2.74c2.02,0.57,2.5,5.79-2.7,6.26
				C372.59,183.58,372.27,182.65,372.62,179.99z"/>
		</g>
		<path class="st17" d="M365.89,410.74h7.11c0.3,0,0.57,0.21,0.63,0.51l1.46,6.6c0.13,0.59-0.25,1.17-0.84,1.3
			c-0.08,0.02-0.16,0.02-0.24,0.02c-2.91-0.05-3.15-0.23-6.8-0.23c-2.25,0-9.05,0.24-12.16,0.24c-3.11,0-3.52-3.07-2.24-3.35
			c5.71-1.24,10.01-2.97,11.84-4.61C364.99,410.9,365.43,410.73,365.89,410.74z"/>
		<path class="st5" d="M363.44,412.04c-0.5,0.04-1.01-0.09-1.42-0.38c-0.28-0.23-0.42-0.59-0.37-0.94c-0.01-0.21,0.11-0.4,0.3-0.49
			c0.82-0.42,3.21,1.05,3.48,1.22c0.06,0.03,0.1,0.1,0.08,0.17c-0.01,0.07-0.06,0.13-0.13,0.15
			C364.75,411.93,364.1,412.02,363.44,412.04z M362.34,410.51c-0.08-0.01-0.16,0.01-0.23,0.05c-0.05,0-0.1,0.07-0.11,0.21
			c-0.03,0.24,0.06,0.47,0.24,0.63c0.83,0.38,1.77,0.42,2.64,0.13C364.1,411.03,363.24,410.68,362.34,410.51z"/>
		<path class="st5" d="M365.34,411.78h-0.08c-0.76-0.41-2.24-2.05-2.09-2.83c0.05-0.27,0.29-0.46,0.57-0.46
			c0.27-0.04,0.54,0.05,0.74,0.23c0.86,0.7,1.04,2.83,1.05,2.93c0,0.06-0.03,0.12-0.08,0.16
			C365.4,411.81,365.36,411.8,365.34,411.78z M363.85,408.77h-0.08c-0.23,0-0.24,0.13-0.25,0.18c-0.09,0.48,0.85,1.72,1.61,2.29
			c-0.05-0.84-0.36-1.65-0.88-2.32C364.13,408.83,363.99,408.77,363.85,408.77z"/>
		<path class="st17" d="M408.33,410.74h7.11c0.3,0,0.57,0.21,0.63,0.51l1.46,6.6c0.13,0.59-0.25,1.17-0.84,1.3
			c-0.08,0.02-0.16,0.02-0.24,0.02c-2.91-0.05-3.15-0.23-6.8-0.23c-2.25,0-9.05,0.24-12.16,0.24c-3.11,0-3.52-3.07-2.24-3.35
			c5.71-1.24,10.01-2.97,11.84-4.61C407.42,410.9,407.87,410.73,408.33,410.74z"/>
		<path class="st5" d="M405.88,412.04c-0.5,0.04-1.01-0.09-1.42-0.38c-0.28-0.23-0.42-0.59-0.37-0.94c-0.01-0.21,0.11-0.4,0.3-0.49
			c0.82-0.42,3.21,1.05,3.48,1.22c0.06,0.03,0.1,0.1,0.08,0.17c-0.01,0.07-0.06,0.13-0.13,0.15
			C407.18,411.93,406.53,412.02,405.88,412.04z M404.78,410.51c-0.08-0.01-0.16,0.01-0.23,0.05c-0.05,0-0.1,0.07-0.11,0.21
			c-0.03,0.24,0.06,0.47,0.24,0.63c0.83,0.38,1.77,0.42,2.64,0.13C406.54,411.03,405.68,410.68,404.78,410.51z"/>
		<path class="st5" d="M407.77,411.78h-0.08c-0.76-0.41-2.24-2.05-2.09-2.83c0.05-0.27,0.29-0.46,0.57-0.46
			c0.27-0.04,0.54,0.05,0.74,0.23c0.86,0.7,1.04,2.83,1.05,2.93c0,0.06-0.03,0.12-0.08,0.16
			C407.83,411.81,407.8,411.8,407.77,411.78z M406.28,408.77h-0.08c-0.23,0-0.25,0.13-0.25,0.18c-0.09,0.48,0.85,1.72,1.61,2.29
			c-0.05-0.84-0.36-1.65-0.88-2.32C406.57,408.83,406.43,408.77,406.28,408.77z"/>
		<path class="st17" d="M356.11,249.93c0,0-5.82-35.45,4.18-51.34c0,0,19.97-1.24,34.02,6.87c0,0-5.81,15.78-6.67,44.47H356.11z"/>
		<path class="st18" d="M354.29,222.81c-0.43-4.81,0.96-9.44,1.2-13.52c3.67-3.06,6.57-7.49,6.57-7.49S363.88,216.15,354.29,222.81z
			"/>
		<path class="st17" d="M362.76,198.52c0,0-19.79-2.32-22.77-3.57c-1.86-0.78-16.41-10.29-16.41-10.29l-3.41,5.08
			c0,0,14.88,12.02,17.4,13.4c5.9,3.24,19.16,7.81,19.16,7.81S364.75,205.39,362.76,198.52z"/>
		<path class="st17" d="M391.82,168.45c0,0,6.79-5.77,13.53-2.14c6.74,3.63-1.11,17.62,0.86,21.91c1.97,4.29,6.24,3.97,0.85,6.79
			c-5.39,2.82-0.17,5.16-0.17,5.16s-4.82,1.64-5.22-2.34s-2.14-7.26-3.7-7.94c-1.56-0.68,2.65-8.22,1.19-11.95
			c-1.46-3.73-5.69-3.41-5.69-3.41L391.82,168.45z"/>
		<path class="st17" d="M381.06,165.8c0,0-8.56-5.37-12.59-1.55c-6.22,5.89,2.65,14.35,12.04,18.36L381.06,165.8z"/>
	</g>
</g>
<g id="Character_1">
	<g id="_x3C_Group_x3E__95_">
		<g>
			<path class="st5" d="M199.53,274.19l-70.14-78.1c2.49-5.49,2-12.12-1.7-17.18c-4.1-5.61-10.77-7.9-16.97-6.75
				c-0.93,0.17-1.32,1.28-0.69,1.98l9.2,10.24c0.36,0.4,0.48,0.96,0.31,1.47l-1.99,6.11c-0.17,0.51-0.59,0.89-1.12,1.01l-6.28,1.33
				c-0.53,0.11-1.07-0.07-1.43-0.47l-9.2-10.24c-0.63-0.7-1.78-0.43-2.05,0.48c-1.65,5.52-0.48,11.73,3.65,16.33
				c4.7,5.23,11.88,6.87,18.14,4.78l70.14,78.1c-2.49,5.49-2,12.12,1.7,17.18c4.1,5.61,10.77,7.9,16.97,6.75
				c0.93-0.17,1.32-1.28,0.69-1.98l-9.2-10.24c-0.36-0.4-0.48-0.96-0.31-1.47l1.99-6.11c0.17-0.51,0.59-0.89,1.12-1.01l6.28-1.33
				c0.53-0.11,1.07,0.07,1.43,0.47l9.2,10.24c0.63,0.7,1.78,0.43,2.05-0.48c1.65-5.52,0.48-11.73-3.65-16.33
				C212.98,273.74,205.8,272.1,199.53,274.19z"/>
			<path class="st19" d="M199.53,274.19l-70.14-78.1c2.49-5.49,2-12.12-1.7-17.18c-4.1-5.61-10.77-7.9-16.97-6.75
				c-0.93,0.17-1.32,1.28-0.69,1.98l9.2,10.24c0.36,0.4,0.48,0.96,0.31,1.47l-1.99,6.11c-0.17,0.51-0.59,0.89-1.12,1.01l-6.28,1.33
				c-0.53,0.11-1.07-0.07-1.43-0.47l-9.2-10.24c-0.63-0.7-1.78-0.43-2.05,0.48c-1.65,5.52-0.48,11.73,3.65,16.33
				c4.7,5.23,11.88,6.87,18.14,4.78l70.14,78.1c-2.49,5.49-2,12.12,1.7,17.18c4.1,5.61,10.77,7.9,16.97,6.75
				c0.93-0.17,1.32-1.28,0.69-1.98l-9.2-10.24c-0.36-0.4-0.48-0.96-0.31-1.47l1.99-6.11c0.17-0.51,0.59-0.89,1.12-1.01l6.28-1.33
				c0.53-0.11,1.07,0.07,1.43,0.47l9.2,10.24c0.63,0.7,1.78,0.43,2.05-0.48c1.65-5.52,0.48-11.73-3.65-16.33
				C212.98,273.74,205.8,272.1,199.53,274.19z"/>
		</g>
		<path class="st20" d="M120.29,182.16c0,0-20.82,2.73-23.52,6.45c-2.7,3.72-2.85,7.16,9.46,10.69l3.6-2.62c0,0-5.11-1.95-4.5-3.15
			c0.6-1.2,14.96-0.75,14.96-0.75V182.16z"/>
		<path class="st5" d="M128.11,181.89l-2.9,10.12l-4.87,0.74l-10.2,1.55l-0.3-4.08l-0.59-8.06
			C109.25,182.16,119.27,180.14,128.11,181.89z"/>
		<path class="st18" d="M122.97,186.17l-2.63,6.58l-10.2,1.55l-0.3-4.08C115.02,186.19,122.97,186.17,122.97,186.17z"/>
		<polygon class="st20" points="120.97,411.73 129.07,412.58 129.49,407.88 130.6,395.09 122.49,394.23 121.26,408.36 		"/>
		<polygon class="st20" points="80.49,410.7 88.35,410.7 88.42,408.92 88.43,408.7 88.82,397.3 88.84,397.07 89,392.7 81.13,392.7 
					"/>
		<polygon class="st18" points="122.49,394.23 121.26,408.36 129.49,407.88 130.6,395.09 		"/>
		<polygon class="st18" points="80.53,409.7 80.55,409.7 88.42,408.7 88.43,408.7 88.84,397.7 88.82,397.7 80.95,398.33 
			80.55,409.36 		"/>
		<path class="st17" d="M89.43,410.23h-9.55c-0.32,0-0.6,0.23-0.67,0.54l-1.55,7c-0.13,0.63,0.27,1.24,0.89,1.37
			c0.08,0.02,0.17,0.03,0.26,0.03c3.09-0.05,5.34-0.24,9.22-0.24c2.39,0,9.6,0.25,12.9,0.25c3.3,0,3.73-3.26,2.38-3.56
			c-6.06-1.32-10.62-3.15-12.56-4.89C90.4,410.4,89.92,410.22,89.43,410.23z"/>
		<path class="st17" d="M129.93,409.98h-9.55c-0.32,0-0.6,0.23-0.67,0.54l-1.55,7c-0.13,0.63,0.27,1.24,0.89,1.37
			c0.08,0.02,0.17,0.03,0.26,0.03c3.09-0.05,5.34-0.24,9.22-0.24c2.39,0,9.6,0.25,12.9,0.25c3.3,0,3.73-3.26,2.38-3.56
			c-6.06-1.32-10.62-3.15-12.56-4.89C130.9,410.15,130.42,409.97,129.93,409.98z"/>
		<path class="st17" d="M131.34,406.7h-11.53c0,0-3.31-99.68-15.78-133.2c1.53,62.33-13.16,134.2-13.16,134.2H79.48
			c0,0,5.21-56.27,5.21-80.88c0-43.61-11.96-64.91-0.31-93.12h41.72C136.31,295.25,140.24,338.7,131.34,406.7z"/>
		<polygon class="st5" points="132.63,403.45 132.07,406.7 118.45,406.7 118.45,403.7 		"/>
		<polygon class="st5" points="92.18,404.7 90.87,407.7 79.45,407.7 78.7,404.7 		"/>
		<g>
			<path class="st20" d="M162.03,185.55c-0.31,0.25-0.62,0.48-0.93,0.69c-1.9,1.28-4.08,1.87-6.21,1.85c-0.56,0-1.12-0.05-1.67-0.14
				c-2.9-0.47-5.54-2.12-7.07-4.77c-0.63-1.07-1.08-2.33-1.27-3.74c-0.8-5.54,2.02-9.17,6.29-15.68c0.9-1.42,2.11-2.61,3.55-3.46
				c5.05-3.02,11.59-1.37,14.6,3.67C173.6,171.01,167.55,180.93,162.03,185.55z"/>
			<path class="st18" d="M154.88,188.09c-0.56,0-1.12-0.05-1.67-0.14c-2.9-0.47-5.54-2.12-7.07-4.77c1.33-0.88,2.69-1.29,2.69-1.29
				S152.99,184.08,154.88,188.09z"/>
			<path class="st20" d="M136.31,186.87c1.01,5.08,9.31,9.63,9.31,9.63s5.66,2.2,5.76,0c-2.43-2.51-2.82-4.8-2.14-6.87
				c0.39-1.2,1.15-2.32,2.06-3.37c0.47-0.56,1-1.09,1.54-1.6l-4.21-13.81C146.48,176.32,141.77,185.81,136.31,186.87z"/>
			<path class="st17" d="M172.79,164.92c-0.85-4.75-3.25-4.96-3.25-4.96c-0.23-3.78-9.15-7.6-14.98-6.38
				c-5.83,1.23-9.82,6.39-11.41,11.13c-2.33,6.9-0.92,15.48-0.92,15.48c0,0,0,0,0,0c4.72,3.6,9.64,4.26,11.14,1.59
				c1.5-2.67,5.19-3.58,5.19-3.58c2.25,1.95,5.81,0.02,5.81,0.02s4.03-1.39,4.73-5.33C169.78,168.95,173.5,168.92,172.79,164.92z"/>
			<path class="st20" d="M158.37,175.96c-0.63,1.64-0.63,3.19,0.02,4.32c0.87,1.48,3.04,0.31,4.24-1.71
				c1.06-1.79,1.93-4.78,0.34-5.47C161.38,172.4,159.17,173.96,158.37,175.96z"/>
			<path class="st17" d="M159.39,153.54c8.77-2.62,15.83,11.78,15.48,19.41c-0.28,6.2-6.79,5.45-6.79,5.45s3.59-0.24,3.25-4.6
				c0,0-1.56,5.33-5.05,1.83c-3.49-3.5,0.64-11.84,0.64-11.84L159.39,153.54z"/>
		</g>
		<path class="st18" d="M103.07,314.25c-1.54-15.55-4.41-28.78-4.41-28.78c-11.81-14.84-5.36-28.54-5.36-28.54
			c1.58,9.53,10.73,16.57,10.73,16.57C104.36,286.91,103.94,300.76,103.07,314.25z"/>
		<g>
			<path class="st5" d="M136.29,184.59c0,0,2.54-1.88,7.22,0.89c4.68,2.77,6.22,8.07,6.22,8.07L136.29,184.59z"/>
			<path class="st5" d="M130.6,253.38c0,0,0-24.33,25.44-53.78c0,0-11.42-15.95-27.92-17.71c0,0-30.46,10.46-47.05,54.99
				L130.6,253.38z"/>
			<path class="st7" d="M156.03,199.6c-2.69,3.12-5.1,6.18-7.25,9.16c-4.25,5.89-7.51,11.47-10,16.55
				c-8.18,16.66-8.18,28.07-8.18,28.07l-49.54-16.5c16.59-44.54,47.05-54.99,47.05-54.99C144.61,183.66,156.03,199.6,156.03,199.6z"
				/>
			<g>
				<g>
					<path class="st5" d="M130.9,249.89c-0.11,0.82-0.18,1.5-0.22,2.04l-48.95-16.81c0.24-0.63,0.49-1.25,0.74-1.86L130.9,249.89z"
						/>
				</g>
				<g>
					<path class="st5" d="M131.76,244.94c-0.15,0.71-0.29,1.37-0.4,1.99c-16.96-6.55-36.27-13.86-47.2-17.64
						c0.27-0.62,0.55-1.22,0.83-1.82C97.18,231.67,118.28,239.73,131.76,244.94z"/>
				</g>
				<g>
					<path class="st5" d="M133.05,239.92c-0.2,0.67-0.38,1.32-0.55,1.94c-13.46-5.82-33.75-14.37-45.61-18.29
						c0.31-0.61,0.62-1.2,0.93-1.79C99.9,225.8,119.74,234.15,133.05,239.92z"/>
				</g>
				<g>
					<path class="st5" d="M134.72,234.79c-0.23,0.66-0.46,1.3-0.67,1.92c-13.14-6.34-31.99-15.01-44.12-18.71
						c0.34-0.6,0.69-1.19,1.04-1.76C103.31,220.06,121.75,228.53,134.72,234.79z"/>
				</g>
				<g>
					<path class="st5" d="M136.79,229.62c-0.28,0.63-0.54,1.25-0.78,1.87c-12.57-6.72-30.02-15.36-42.72-18.91
						c0.39-0.59,0.79-1.18,1.19-1.75C107.35,214.54,124.41,222.98,136.79,229.62z"/>
				</g>
				<g>
					<path class="st5" d="M139.23,224.39c-0.31,0.62-0.61,1.24-0.9,1.85c-11.82-6.97-27.9-15.46-41.29-18.94
						c0.44-0.59,0.88-1.16,1.33-1.73C111.86,209.23,127.59,217.52,139.23,224.39z"/>
				</g>
				<g>
					<path class="st5" d="M142.04,219.17c-0.35,0.61-0.68,1.21-1.01,1.8c-10.97-7.08-25.78-15.32-39.79-18.84
						c0.5-0.58,1-1.14,1.52-1.69C116.78,204.13,131.25,212.18,142.04,219.17z"/>
				</g>
				<g>
					<path class="st5" d="M145.16,214.06c-0.37,0.56-0.72,1.12-1.07,1.68c-10.08-7.09-23.7-15.02-38.13-18.63
						c0.57-0.56,1.13-1.1,1.69-1.62C121.88,199.29,135.22,207.08,145.16,214.06z"/>
				</g>
				<g>
					<path class="st5" d="M148.64,208.95c-0.39,0.55-0.77,1.09-1.15,1.62c-9.15-6.99-21.63-14.57-36.16-18.33
						c0.66-0.54,1.3-1.06,1.93-1.55C127.45,194.64,139.63,202.07,148.64,208.95z"/>
				</g>
				<g>
					<path class="st5" d="M152.45,203.92c-0.42,0.53-0.83,1.05-1.23,1.58c-8.2-6.78-19.52-13.97-33.71-17.9
						c0.77-0.52,1.51-0.99,2.22-1.43C133.42,190.26,144.39,197.28,152.45,203.92z"/>
				</g>
				<g>
					<path class="st5" d="M156.03,199.6c-0.27,0.31-0.53,0.62-0.79,0.93c-7.18-6.41-17.19-13.09-30.42-17.2
						c1.23-0.61,2.16-1,2.71-1.22c10.59,3.59,19.07,8.78,25.65,14.07c0,0,0.01,0,0.01,0.01C155.03,198.2,156.03,199.6,156.03,199.6z
						"/>
				</g>
			</g>
			<path class="st18" d="M148.78,208.76c-4.25,5.89-7.51,11.47-10,16.55c-0.32-12.82,9.24-19.81,9.24-19.81L148.78,208.76z"/>
		</g>
		<path class="st20" d="M156.03,207.12v30.82l11.93,21.47l4.91,5.47c0,0-5.74,3.54-7.32,1.27c-1.58-2.28-3.16-6.74-3.16-6.74
			s-11.86-15.93-13.71-19.73c-1.86-3.81-2.53-26.81-2.53-26.81L156.03,207.12z"/>
		<path class="st5" d="M156.03,199.6c1.88,5.2,1.86,22.92,1.86,22.92l-13.32,1.17l-1.07-7c0,0,0.1-6.34,4.58-12.61
			C151.14,199.81,156.03,199.6,156.03,199.6z"/>
	</g>
</g>
</svg>
